<svg width="13" height="14" viewBox="0 0 13 14" fill="none" xmlns="http://www.w3.org/2000/svg">
<path d="M12.5506 2.43012C12.5533 2.23038 12.4752 2.03803 12.3339 1.89679C12.1927 1.75554 12.0003 1.6774 11.8006 1.68012C11.3864 1.68012 11.0506 2.0159 11.0506 2.43012V10.5001L1.7206 1.16012C1.53363 0.959462 1.25205 0.876866 0.986315 0.94473C0.720581 1.01259 0.513082 1.22009 0.445218 1.48583C0.377354 1.75156 0.45995 2.03314 0.660603 2.22012L10.0006 11.5601H1.9306C1.51639 11.5601 1.1806 11.8959 1.1806 12.3101C1.1806 12.7243 1.51639 13.0601 1.9306 13.0601H11.8106C12.2248 13.0601 12.5606 12.7243 12.5606 12.3101L12.5506 2.43012Z" fill="#F5FFFF"/>
</svg>
