<svg width="33" height="32" viewBox="0 0 33 32" fill="none" xmlns="http://www.w3.org/2000/svg">
<path d="M20.0665 3.56126L21.1665 6.89459C21.6636 8.43741 23.0957 9.48624 24.7165 9.49459H28.1832C29.8091 9.48426 31.2546 10.5273 31.7573 12.0735C32.26 13.6197 31.7043 15.3135 30.3832 16.2613L27.5332 18.3279C26.2213 19.2804 25.6699 20.968 26.1665 22.5113L27.2665 25.8446C27.8106 27.3931 27.2795 29.1154 25.9577 30.0885C24.6359 31.0616 22.8336 31.0573 21.5165 30.0779L18.7165 27.9946C17.404 27.0437 15.6291 27.0437 14.3165 27.9946L11.5165 30.0779C10.2068 31.0366 8.4277 31.0391 7.11521 30.0842C5.80272 29.1293 5.25757 27.4358 5.76655 25.8946L6.86655 22.5613C7.36315 21.018 6.81181 19.3304 5.49988 18.3779L2.58321 16.2779C1.23538 15.3282 0.670177 13.6068 1.19274 12.0429C1.71529 10.4791 3.20185 9.44324 4.84988 9.49459H8.31655C9.92855 9.49098 11.3579 8.45757 11.8665 6.92792L12.9665 3.59459C13.4597 2.05494 14.8878 1.00763 16.5044 1.00004C18.1211 0.992451 19.559 2.0263 20.0665 3.56126Z" stroke="#EC7D3C" stroke-width="2"/>
</svg>
